PathFileType   4   (X/Y/Z)
DataRate	CameraRate	NumFrames	NumMarkers	Units	OrigDataRate	OrigDataStartFrame	OrigNumFrames
120.0	120.0	7	37	mm	120.0	64	168
Frame#	Time	midhip	hip_r	hip_l	knee_r	knee_l	ankle_r	ankle_l	midasis	asis_r	asis_l	psis_r	psis_l	epicondLat_r	epicondLat_l	epicondMed_r	epicondMed_l	malleolusLat_r	malleolusLat_l	malleolusMedv_r	malleolusMedv_l	neck	subclavicle_r	subclavicle_l	sternalnotch	xyphoidprocess	thighwand_r	thighwand_l	upperleg1_r	upperleg1_l	upperleg2_r	upperleg2_l	shankwand_r	shankwand_l	lowerleg1_r	lowerleg1_l	toe_r	toe_l
 	 	X1	Y1	Z1	X2	Y2	Z2	X3	Y3	Z3	X4	Y4	Z4	X5	Y5	Z5	X6	Y6	Z6	X7	Y7	Z7	X8	Y8	Z8	X9	Y9	Z9	X10	Y10	Z10	X11	Y11	Z11	X12	Y12	Z12	X13	Y13	Z13	X14	Y14	Z14	X15	Y15	Z15	X16	Y16	Z16	X17	Y17	Z17	X18	Y18	Z18	X19	Y19	Z19	X20	Y20	Z20	X21	Y21	Z21	X22	Y22	Z22	X23	Y23	Z23	X24	Y24	Z24	X25	Y25	Z25	X26	Y26	Z26	X27	Y27	Z27	X28	Y28	Z28	X29	Y29	Z29	X30	Y30	Z30	X31	Y31	Z31	X32	Y32	Z32	X33	Y33	Z33	X34	Y34	Z34	X35	Y35	Z35	X36	Y36	Z36	X37	Y37	Z37

	64	0.80833	416.404	808.330	-301.108	406.272	782.698	-225.858	386.626	788.330	-376.606	540.640	428.476	-224.904	309.665	421.662	-355.501	661.914	72.532	-214.944	190.310	74.516	-328.099	487.621	858.296	-307.327	499.122	853.817	-188.767	476.121	862.774	-425.886	297.765	918.239	-250.112	289.837	917.812	-304.227	554.265	433.796	-168.778	314.267	417.377	-413.159	523.297	417.381	-283.199	331.780	433.803	-292.870	647.875	68.792	-177.676	176.923	76.146	-365.757	665.536	82.729	-249.152	202.928	81.157	-303.719	370.235	1360.767	-296.331	494.019	1293.311	-249.181	490.936	1288.965	-354.552	488.774	1288.394	-300.859	525.247	1216.745	-303.052	630.590	600.797	-267.680	376.623	540.029	-505.372	564.564	628.699	-199.625	326.054	600.645	-450.439	582.164	542.220	-199.829	321.598	514.438	-433.006	612.137	145.549	-108.607	318.359	165.891	-330.077	610.395	149.981	-152.226	277.605	177.971	-338.528	760.135	74.846	-184.319	291.087	42.705	-363.705
	65	0.81667	422.063	807.865	-299.376	412.190	782.286	-224.673	392.242	787.785	-375.386	543.964	427.635	-224.098	312.765	421.733	-354.713	663.546	71.402	-214.706	190.743	75.382	-328.024	493.548	857.593	-306.402	505.293	853.226	-187.795	481.803	861.961	-425.009	303.655	918.169	-248.619	295.694	917.627	-302.587	557.790	432.863	-168.013	317.205	417.512	-412.388	521.588	418.180	-282.563	335.019	433.743	-292.157	649.548	67.686	-177.420	177.322	77.210	-365.661	667.189	81.650	-248.852	203.481	82.147	-303.712	375.706	1360.106	-294.857	499.177	1292.805	-247.905	496.275	1288.716	-353.851	494.176	1287.917	-299.707	530.574	1216.405	-302.202	635.580	599.388	-267.320	380.200	539.915	-504.466	571.115	628.363	-199.506	329.472	600.437	-449.735	585.432	540.338	-199.501	325.119	514.468	-432.355	614.327	144.535	-108.496	319.570	165.818	-329.935	612.220	149.666	-152.046	278.414	178.174	-338.482	761.798	71.819	-183.587	291.198	42.671	-363.719
	66	0.82500	427.605	807.421	-297.762	418.206	782.046	-223.394	397.984	787.323	-374.079	547.154	427.018	-223.214	315.981	421.870	-353.866	665.341	70.552	-214.456	191.231	76.361	-327.982	499.579	857.023	-305.411	511.547	852.836	-186.739	487.610	861.210	-424.082	309.589	918.254	-247.150	301.590	917.585	-301.034	561.132	432.124	-167.156	320.261	417.718	-411.559	528.562	416.120	-279.128	337.679	434.285	-290.545	651.421	66.854	-177.139	177.771	78.403	-365.594	670.563	81.293	-248.095	204.052	83.001	-303.726	381.032	1359.548	-293.579	504.706	1292.756	-246.492	501.563	1288.564	-352.349	499.598	1287.542	-298.432	536.208	1216.405	-300.756	640.561	598.012	-266.727	383.893	539.867	-503.473	576.918	627.403	-198.957	333.300	600.515	-448.593	592.049	540.138	-198.169	328.420	514.715	-430.993	616.753	143.742	-108.423	320.806	165.839	-329.828	615.280	149.849	-151.615	279.918	178.415	-338.579	763.647	68.983	-182.829	291.295	42.658	-363.728
	67	0.83333	433.874	807.924	-296.308	424.305	781.999	-222.010	403.824	786.960	-372.671	550.291	426.632	-222.249	319.326	422.064	-352.960	667.170	69.915	-214.234	191.765	77.459	-327.987	505.693	856.604	-304.351	517.872	852.673	-185.619	493.513	860.535	-423.084	315.564	918.511	-245.703	307.523	917.701	-299.577	564.379	431.588	-166.205	323.446	417.993	-410.670	534.634	414.099	-275.816	341.059	434.389	-288.884	653.366	66.231	-176.873	178.266	79.732	-365.572	674.349	80.675	-247.380	204.527	84.022	-303.615	386.170	1359.306	-292.193	510.397	1292.364	-244.928	507.142	1288.266	-350.826	505.048	1287.336	-297.087	541.913	1216.093	-299.317	645.496	596.702	-265.885	387.696	539.884	-502.406	581.799	626.336	-198.080	337.565	600.591	-446.925	597.468	539.659	-196.417	332.001	514.931	-429.317	619.320	143.113	-108.345	322.069	165.949	-329.749	618.860	149.878	-151.565	281.283	178.867	-338.463	765.594	66.325	-182.056	291.391	42.684	-363.730
	68	0.84167	440.240	808.695	-294.799	430.473	782.160	-220.504	409.726	786.703	-371.142	553.473	426.464	-221.215	322.793	422.303	-351.999	668.871	69.415	-214.082	192.335	78.674	-328.048	511.862	856.345	-303.222	524.257	852.749	-184.456	499.468	859.940	-421.989	321.583	918.942	-244.271	313.498	917.974	-298.202	567.633	431.249	-165.174	326.762	418.323	-409.726	539.081	413.635	-273.738	344.644	433.617	-288.353	655.214	65.749	-176.664	178.804	81.194	-365.606	678.145	80.151	-246.664	205.242	85.241	-303.413	391.643	1359.435	-290.729	515.852	1291.905	-243.291	512.709	1287.744	-349.346	510.517	1287.357	-295.687	547.152	1215.480	-297.670	650.348	595.497	-264.796	391.618	539.964	-501.279	586.792	626.208	-196.894	342.105	600.874	-445.184	602.359	539.230	-194.947	335.858	515.319	-428.199	621.884	142.587	-108.221	323.369	166.142	-329.692	622.708	149.702	-151.318	282.710	179.314	-338.062	767.530	63.790	-181.275	291.503	42.764	-363.724
	69	0.85000	446.471	809.442	-293.233	436.698	782.525	-218.884	415.679	786.554	-369.498	556.791	426.489	-220.127	326.360	422.576	-350.998	670.324	68.994	-214.022	192.941	80.007	-328.163	518.077	856.246	-302.025	530.685	853.064	-183.266	505.468	859.428	-420.785	327.640	919.546	-242.841	319.528	918.390	-296.878	570.998	431.086	-164.083	330.201	418.698	-408.740	542.451	413.784	-272.394	348.029	433.186	-287.679	656.826	65.348	-176.546	179.385	82.785	-365.694	680.432	79.973	-246.305	206.296	86.470	-303.449	397.091	1359.991	-289.292	521.040	1292.151	-241.887	518.089	1287.694	-347.892	516.010	1287.609	-294.284	552.202	1215.470	-295.962	655.089	594.433	-263.491	395.682	540.105	-500.105	591.687	626.114	-195.439	346.770	601.206	-443.580	606.670	538.717	-193.531	339.760	515.825	-427.085	624.309	142.112	-108.033	324.717	166.418	-329.657	625.706	149.350	-150.531	284.261	179.860	-337.610	769.358	61.328	-180.503	291.649	42.906	-363.708
	70	0.85833	452.623	810.132	-291.452	442.949	783.082	-217.166	421.671	786.515	-367.759	560.300	426.664	-219.004	329.993	422.888	-349.995	671.510	68.618	-214.053	193.588	81.455	-328.323	524.316	856.301	-300.762	537.125	853.597	-182.056	511.508	859.005	-419.468	333.741	920.311	-241.412	325.620	918.931	-295.564	574.545	431.065	-162.953	333.754	419.118	-407.750	545.499	413.554	-270.153	351.672	434.713	-285.277	658.155	64.989	-176.523	180.013	84.498	-365.826	680.768	79.520	-246.607	207.222	87.515	-303.836	402.566	1360.533	-287.730	526.516	1293.133	-240.482	523.727	1288.280	-346.775	521.533	1288.075	-292.934	557.920	1216.321	-294.386	659.698	593.543	-262.031	399.919	540.305	-498.894	595.783	625.556	-193.469	351.293	601.541	-442.410	610.174	538.455	-191.341	343.705	516.413	-425.282	626.503	141.653	-107.785	326.127	166.773	-329.650	627.329	149.012	-150.180	285.806	180.370	-337.169	771.023	58.919	-179.770	291.850	43.106	-363.679
